<svg xmlns="http://www.w3.org/2000/svg" width="3.4625in" height="1.54629in" viewBox="0 0 249.29979 111.333">
  <g>
    <path d="M104.71579,55.291H90.27639l-1.7041,6.0215H90.811L83.68209,72.6187l-.9995-17.3277H68.03419l-1.6641,5.9942,2.23491.0273L59.03909,75.8262l-7.8775-.0317a4.33766,4.33766,0,0,1-4.0073-4.70561c0-3.94629,3.7539-9.66939,7.5693-9.66939l1.5987.0376c-.2686.9707-.8321,2.9897-.8321,2.9897h7.0137l2.521-9.1558-10.8057-.04a15.11786,15.11786,0,0,0-13.8701,9.7944l2.7998-9.7231L33.541,55.291l-1.6958,6.0215,2.4868-.0107-2.5039,8.8188L25.542,55.3223H16.5361l-1.6899,5.9922h2.4697L11.7353,81.6402h7.2002s2.7701-10.07231,3.4844-12.6665c1.0142,2.4521,5.2402,12.6665,5.2402,12.6665l8.01319-.0025,3.6665-12.9082a17.86288,17.86288,0,0,0-.0044,5.9229c.70661,4.22949,4.8213,6.9878,9.3135,6.9878h14.5425L65.689,77.85989H75.94769l.2081,3.74071H85.251l2.31589-3.74071h10.4927l.4106,3.78031h6.439l1.4204-2.88331Z" style="fill: #fff"/>
    <g>
      <path d="M69.82319,71.5708l5.5757-8.4634.2974,8.4634ZM92.145,71.4575l5.56929-8.4335.2798,8.4335Z" style="fill: #009CDE"/>
      <path d="M98.47019,81.6402l-.4106-3.78031H87.56689L85.251,81.6006H76.15579l-.2081-3.74071H65.689L63.19139,81.6402H48.64889c-4.4922,0-8.60689-2.75831-9.3135-6.9878a17.86288,17.86288,0,0,1,.0044-5.9229l-3.6665,12.9082-8.01319.0025s-4.226-10.2144-5.2402-12.6665c-.7143,2.59419-3.4844,12.6665-3.4844,12.6665H11.7353l5.5806-20.3257H14.8462l1.6899-5.9922H25.542l6.2861,14.7983,2.5039-8.8188-2.4868.0107L33.541,55.291l9.60789.0313-2.7998,9.7231a15.11786,15.11786,0,0,1,13.8701-9.7944l10.8057.04-2.521,9.1558h-7.0137s.5635-2.019.8321-2.9897l-1.5987-.0376c-3.8154,0-7.5693,5.7231-7.5693,9.66939a4.33766,4.33766,0,0,0,4.0073,4.70561l7.8775.0317L68.605,61.3125l-2.23491-.0273,1.6641-5.9942h14.6484l.9995,17.3277L90.811,61.3125H88.57229l1.7041-6.0215h14.4394l1.6138,23.46589a55.76977,55.76977,0,1,0-1.4204,2.88331Z" style="fill: #009CDE"/>
    </g>
  </g>
  <g>
    <path d="M123.46039,56.3936h8.6949c7.5678.1758,11.5449,4.3296,11.5449,12.5664s-3.9771,12.3906-11.5449,12.5664h-8.6949Zm2.3941,23.09129h5.104c7.2158.03511,10.3486-3.02739,10.3486-10.52489s-3.1328-10.56011-10.3486-10.5249h-5.104Z"/>
    <path d="M147.04389,56.3936h2.2188v3.5552h-2.2188Zm0,6.9697h2.2188V81.5264h-2.2188Z"/>
    <path d="M151.33889,63.3633h2.4638l5.7022,15.9453h.0703L165.208,63.3633h2.28709l-6.793,18.1631h-2.3584Z"/>
    <path d="M169.57229,56.3936H171.79v3.5552h-2.21771Zm0,6.9697H171.79V81.5264h-2.21771Z"/>
    <path d="M186.78509,68.6782c-.1054-2.7456-2.2177-3.9775-4.7519-3.9775-1.9717,0-4.2939.7744-4.2939,3.1328,0,1.9712,2.2519,2.6753,3.7656,3.0625l2.957.669c2.5352.3872,5.1738,1.8652,5.1738,5.0332,0,3.9424-3.9062,5.456-7.2851,5.456-4.22459,0-7.1113-1.9712-7.4629-6.4062h2.2168c.1767,2.9922,2.39451,4.541,5.35151,4.541,2.07619,0,4.96289-.9155,4.96289-3.4497,0-2.1123-1.9707-2.8159-3.9775-3.3091l-2.8516-.63331c-2.8857-.77439-5.0693-1.76029-5.0693-4.85789,0-3.6958,3.627-5.104,6.8301-5.104,3.625,0,6.5117,1.90089,6.6523,5.8432Z"/>
    <path d="M192.73339,56.3936h2.2178v3.5552h-2.2178Zm0,6.9697h2.2178V81.5264h-2.2178Z"/>
    <path d="M215.332,72.4448c0,5.2095-3.02731,9.6094-8.58881,9.6094s-8.5889-4.3999-8.5889-9.6094c0-5.20991,3.0273-9.6098,8.5889-9.6098S215.332,67.23489,215.332,72.4448Zm-14.95991,0c0,3.87209,2.1113,7.7442,6.3711,7.7442s6.3711-3.87211,6.3711-7.7442-2.1114-7.7441-6.3711-7.7441S200.37209,68.5728,200.37209,72.4448Z"/>
    <path d="M218.46389,63.3633h2.2187v3.1328h.0703a6.15651,6.15651,0,0,1,5.8067-3.6611c5.10541,0,6.6543,2.6753,6.6543,7.00489V81.5264h-2.2188V70.19189c0-3.13279-1.0195-5.49119-4.6113-5.49119-3.5195,0-5.6309,2.6753-5.7012,6.2305V81.5264h-2.2187Z"/>
    <path d="M247.081,56.3936h2.21879V81.5264H247.081Z"/>
  </g>
</svg>